<svg width="251" height="48" viewBox="0 0 251 48" fill="none" xmlns="http://www.w3.org/2000/svg">
<path d="M32.0427 2.4856L18.5444 15.976L32.0427 29.4699L45.5376 15.976L32.0427 2.4856Z" fill="#2300BD"/>
<path d="M0.5 34.006L13.9983 47.4999L30.7107 30.7924L17.2124 17.2986L0.5 34.006Z" fill="#2300BD"/>
<path d="M34.584 32.0205L48.0858 45.5143L61.5807 32.0205L48.0858 18.53L34.584 32.0205Z" fill="#2300BD"/>
<path d="M66.1225 0.5L49.4136 17.2041L62.9085 30.6979L79.6209 13.9904L66.1225 0.5Z" fill="#2300BD"/>
<path d="M203.275 28.6816H200.448L201.756 25.9957C202.184 25.106 202.694 24.0303 203.275 22.7618C203.441 22.3964 203.614 22.0108 203.794 21.6184C203.92 22.0514 204.688 24.4058 206.101 28.685H203.275V28.6816ZM211.568 23.7901L208.914 16.2094C207.457 16.2364 205.88 16.25 204.168 16.25C203.91 16.25 203.611 16.25 203.275 16.2432C202.33 16.2364 201.07 16.2263 199.497 16.2094C198.977 17.302 198.572 18.1409 198.284 18.7194L197.285 20.7051L187.887 38.4037L186.379 41.0219C188.424 40.9949 189.905 40.9813 190.833 40.9813C191.343 40.9813 192.722 40.9949 194.968 41.0219C196.102 38.4544 197.196 36.1068 198.246 33.9756H207.406C208.412 36.6717 209.183 39.0227 209.716 41.0219C211.694 40.9949 213.189 40.9813 214.208 40.9813C214.656 40.9813 215.927 40.9949 218.023 41.0219L216.97 38.3631L211.568 23.7901ZM250.5 16.2094C248.387 16.2364 246.746 16.25 245.553 16.25C243.807 16.25 242.027 16.2364 240.212 16.2094C239.91 17.3291 239.672 18.1545 239.492 18.6889C239.319 19.2336 238.904 20.3736 238.249 22.1157C237.593 23.8578 237.049 25.4139 236.614 26.7873C236.179 28.1607 235.687 29.7912 235.16 31.6923C234.637 28.9218 234.25 26.9632 233.988 25.8164C233.726 24.6697 233.38 23.3132 232.952 21.747C232.52 20.1774 232.249 19.1219 232.14 18.5807C232.031 18.0395 231.895 17.2513 231.739 16.2094C229.571 16.2364 227.958 16.25 226.904 16.25C225.63 16.25 223.884 16.2364 221.645 16.2094L221.078 24.6054L219.96 37.3516L219.508 41.0253C221.061 40.9982 222.148 40.9847 222.776 40.9847C223.238 40.9847 224.305 40.9982 225.977 41.0253L226.035 38.7013L226.632 28.3738L227.088 23.3369C227.22 24.098 227.319 24.6325 227.373 24.9369C227.434 25.2413 227.492 25.4951 227.54 25.698L228.851 31.0292L231.083 41.0253C232.636 40.9982 233.791 40.9847 234.542 40.9847C235.133 40.9847 236.217 40.9982 237.793 41.0253L241.211 30.7011L243.593 23.2996C243.61 24.1825 243.62 24.8726 243.62 25.3733C243.62 26.5133 243.555 29.1315 243.406 33.2382C243.263 37.3381 243.141 39.9327 243.046 41.0253C244.405 40.9982 245.546 40.9847 246.481 40.9847C247.123 40.9847 248.244 40.9982 249.844 41.0253C249.817 39.8549 249.807 39.0396 249.807 38.5829C249.807 36.4349 249.885 32.4838 250.041 26.7331C250.119 23.8037 250.272 20.2958 250.5 16.2094ZM173.672 41.0253C174.28 35.1359 174.644 28.6545 174.763 21.5744L167.023 21.7706L167.108 19.7545C167.156 18.672 167.193 17.4948 167.217 16.2094C170.662 16.2364 174.671 16.25 179.247 16.25L183.739 16.2331H188.101L190.466 16.2128L190.354 17.9955C190.303 18.9494 190.272 19.7376 190.255 20.36C190.235 20.9858 190.228 21.4594 190.228 21.774C187.636 21.6421 185.499 21.5778 183.814 21.5778H182.543C182.363 23.7123 182.217 25.6912 182.125 27.5078C181.993 30.1091 181.891 32.6327 181.819 35.0852C181.741 37.5377 181.704 39.5166 181.704 41.0287C179.723 41.0016 178.435 40.9881 177.854 40.9881C177.331 40.9847 175.938 40.9982 173.672 41.0253ZM142.028 41.0253C142.259 38.8908 142.439 36.9694 142.571 35.2611C142.707 33.5528 142.823 31.5739 142.921 29.3176C143.02 27.068 143.091 24.69 143.145 22.1833C143.186 19.6835 143.21 17.691 143.21 16.2128C144.729 16.2534 145.955 16.2737 146.886 16.2737C147.851 16.2737 149.037 16.2398 150.43 16.1891C151.823 16.1383 153.175 16.1045 154.5 16.1045C155.883 16.0977 157.265 16.1586 158.645 16.2906C159.491 16.3582 160.323 16.5375 161.125 16.8217C161.794 17.0483 162.43 17.3764 163.004 17.7891C163.49 18.1511 163.918 18.5841 164.275 19.0746C164.631 19.5786 164.9 20.1401 165.066 20.7355C165.256 21.3985 165.352 22.0852 165.348 22.7787C165.352 23.5533 165.246 24.3212 165.036 25.0654C164.828 25.7826 164.499 26.4558 164.064 27.0647C163.612 27.7006 163.045 28.2486 162.396 28.6816C161.506 29.2465 160.558 29.7134 159.566 30.0719L160.513 32.379C160.782 33.0217 161.067 33.6746 161.37 34.3443L163.806 39.6688C163.914 39.9022 164.108 40.3589 164.387 41.0354C162.389 41.0084 161.043 40.9949 160.354 40.9949C159.481 40.9949 158.05 41.0084 156.066 41.0354C155.872 40.3995 155.523 39.2392 155.01 37.5309C154.806 36.807 154.632 36.2624 154.483 35.8767C154.191 35.0108 153.763 33.8065 153.192 32.2572L151.32 27.1086C151.955 27.227 152.601 27.2879 153.25 27.2913C154.068 27.3014 154.884 27.1661 155.655 26.8921C156.321 26.6655 156.895 26.2291 157.293 25.6507C157.649 25.1297 157.843 24.5174 157.846 23.8882C157.857 23.3977 157.711 22.9208 157.429 22.5182C157.099 22.0852 156.634 21.774 156.107 21.6387C155.203 21.4087 154.272 21.3106 153.341 21.3444C152.913 21.3444 152.478 21.3512 152.02 21.3715C151.568 21.3884 151.041 21.4121 150.433 21.4222C150.277 23.9018 150.137 26.9327 150.015 30.5083C149.889 34.0839 149.808 37.5918 149.774 41.0321C147.749 41.005 146.438 40.9915 145.833 40.9915C145.123 40.9847 143.855 40.9982 142.028 41.0253ZM114.222 16.2094C116.108 16.2364 117.44 16.25 118.221 16.25C119.186 16.25 120.474 16.2364 122.091 16.2094L121.547 23.9356C121.442 25.3868 121.357 26.7568 121.306 28.0254C121.248 29.2939 121.225 30.1768 121.225 30.6605C121.211 31.4352 121.276 32.2098 121.425 32.9676C121.534 33.5426 121.782 34.0839 122.149 34.5405C122.536 34.9938 123.042 35.3321 123.613 35.5114C124.242 35.7313 124.904 35.8429 125.57 35.8395C126.124 35.8429 126.671 35.7617 127.201 35.5993C127.588 35.481 127.948 35.2983 128.274 35.0581C128.553 34.845 128.798 34.5879 129.002 34.3004C129.287 33.9012 129.515 33.4648 129.678 33.0048C129.898 32.3891 130.041 31.7498 130.109 31.1003C130.225 30.3053 130.367 28.4989 130.547 25.6845C130.707 23.2929 130.829 21.0975 130.911 19.1016C130.897 18.1308 130.965 17.1633 131.111 16.2026H139.123L138.239 29.1078C138.226 29.3514 138.222 29.551 138.222 29.71C138.243 31.4994 138.086 33.2889 137.757 35.048C137.519 36.029 137.077 36.9525 136.456 37.7508C135.725 38.61 134.821 39.3136 133.806 39.8109C132.562 40.4468 131.224 40.8866 129.844 41.1065C128.359 41.3602 126.858 41.4887 125.353 41.4887C124.041 41.4887 122.73 41.3906 121.435 41.1944C120.358 41.0287 119.305 40.7445 118.289 40.3521C117.423 40.024 116.601 39.5876 115.846 39.0498C115.289 38.6641 114.797 38.1872 114.396 37.6425C114.035 37.1216 113.764 36.5431 113.597 35.9309C113.373 35.1427 113.264 34.3274 113.271 33.5088C113.271 33.2179 113.281 32.7815 113.308 32.1997C113.336 31.6077 113.393 30.7654 113.472 29.6558L113.709 26.7501C113.767 25.9889 113.835 24.8625 113.91 23.3842L114.222 16.2094ZM98.6821 26.5539C100.344 26.5809 101.927 26.5944 103.428 26.5944C105.997 26.5944 108.008 26.5809 109.462 26.5539C109.303 28.2182 109.143 30.5658 108.98 33.6103C108.814 36.6548 108.715 38.9483 108.678 40.4976C107.288 40.7547 106.136 40.9373 105.219 41.049C104.308 41.1674 103.201 41.2689 101.92 41.3602C100.636 41.4583 99.4941 41.4989 98.4851 41.4989C96.8577 41.4989 95.2337 41.367 93.6266 41.1031C92.1555 40.8697 90.7218 40.4367 89.3662 39.8143C88.1533 39.2493 87.083 38.4206 86.2337 37.3922C85.3639 36.3199 84.7082 35.0919 84.2971 33.776C83.8452 32.379 83.6108 30.9176 83.6142 29.4495C83.6006 27.041 84.2359 24.6764 85.4522 22.596C86.7025 20.4649 88.5338 18.7295 90.732 17.5895C93.5009 16.2567 96.5587 15.6208 99.6334 15.7459C102.596 15.7798 105.549 16.0977 108.447 16.6999C108.447 18.4724 108.528 20.4378 108.684 22.6096C107.808 22.322 107.108 22.0988 106.568 21.9465C106.028 21.7977 105.392 21.6556 104.672 21.5305C103.952 21.4053 103.265 21.3072 102.62 21.2497C101.968 21.1854 101.39 21.1584 100.884 21.1584C99.5995 21.1516 98.322 21.3444 97.0955 21.7267C95.9607 22.0852 94.9143 22.684 94.0377 23.4891C93.1884 24.2773 92.5292 25.2549 92.1181 26.3374C91.6901 27.4503 91.4726 28.6309 91.4794 29.8216C91.4556 30.9751 91.707 32.1185 92.2065 33.157C92.6957 34.1414 93.5111 34.9296 94.5134 35.3896C95.6176 35.9072 96.8237 36.1677 98.0434 36.1507C99.2393 36.1372 100.428 35.9782 101.587 35.6772L101.791 31.7295C101.003 31.6889 100.537 31.6754 100.388 31.6754L98.4545 31.6923L98.587 29.463C98.5904 29.2195 98.6108 28.8677 98.6346 28.4144C98.6686 27.9611 98.6821 27.342 98.6821 26.5539Z" fill="#2300BD"/>
</svg>
