<svg width="250" height="46" viewBox="0 0 250 46" fill="none" xmlns="http://www.w3.org/2000/svg">
<path d="M104.242 24.3703C105.839 24.3953 107.357 24.4074 108.799 24.4074C111.265 24.4074 113.199 24.3953 114.593 24.3703C114.439 25.9763 114.284 28.2405 114.129 31.1777C113.967 34.1159 113.874 36.33 113.837 37.8255C112.505 38.0725 111.396 38.2526 110.515 38.3593C109.64 38.4744 108.579 38.5691 107.346 38.6592C106.114 38.7502 105.019 38.791 104.05 38.791C102.468 38.791 100.913 38.6638 99.3874 38.4085C97.863 38.1504 96.4984 37.7308 95.2971 37.1636C94.0931 36.589 93.0941 35.8073 92.2899 34.8252C91.4848 33.8439 90.8643 32.6807 90.4304 31.3328C89.9973 29.9848 89.7748 28.597 89.7748 27.159C89.7748 24.7843 90.3648 22.5776 91.5383 20.5446C92.7128 18.5153 94.4025 16.9 96.6073 15.7135C98.8113 14.5253 101.663 13.9339 105.153 13.9339C107.703 13.9339 110.519 14.2421 113.616 14.8586C113.616 16.5685 113.693 18.4661 113.846 20.5613C113.004 20.2819 112.329 20.0693 111.814 19.9208C111.295 19.7769 110.687 19.6413 109.996 19.5179C109.306 19.3944 108.644 19.3034 108.025 19.2505C107.399 19.1892 106.845 19.1605 106.358 19.1605C105.076 19.1605 103.866 19.3452 102.722 19.711C101.587 20.0814 100.603 20.6523 99.7881 21.4126C98.9673 22.1812 98.3505 23.0975 97.9461 24.1614C97.5371 25.2299 97.333 26.3467 97.333 27.5266C97.333 28.7381 97.5657 29.8103 98.032 30.7479C98.4955 31.6892 99.2341 32.4078 100.247 32.9016C101.259 33.3899 102.393 33.6369 103.637 33.6369C104.672 33.6369 105.805 33.4884 107.039 33.1811L107.235 29.373C106.479 29.3359 106.029 29.3192 105.888 29.3192L104.035 29.335L104.162 27.1822C104.166 26.9482 104.185 26.6075 104.208 26.1684C104.23 25.7303 104.242 25.1306 104.242 24.3703ZM119.162 14.387C120.972 14.4111 122.253 14.4241 122.999 14.4241C123.927 14.4241 125.165 14.4111 126.716 14.387L126.191 21.8433C126.091 23.2451 126.007 24.5634 125.96 25.7915C125.905 27.016 125.884 27.8664 125.884 28.3352C125.884 29.2227 125.943 29.97 126.073 30.5622C126.198 31.1619 126.43 31.6632 126.767 32.0829C127.108 32.4978 127.574 32.8097 128.174 33.0195C128.769 33.2293 129.394 33.3361 130.052 33.3361C130.605 33.3361 131.127 33.2581 131.617 33.1068C132.006 32.9824 132.345 32.8107 132.647 32.5851C132.916 32.3799 133.147 32.1321 133.344 31.8536C133.589 31.5249 133.804 31.1025 133.994 30.6012C134.178 30.1287 134.314 29.516 134.409 28.7641C134.519 27.9954 134.654 26.2538 134.827 23.5385C134.981 21.2288 135.095 19.1094 135.179 17.1868C135.25 15.3255 135.309 14.3888 135.368 14.3888H139.52H143.063L142.212 26.8452C142.2 27.0791 142.197 27.2732 142.197 27.4245C142.148 29.8567 141.996 31.5704 141.747 32.573C141.498 33.571 141.081 34.438 140.497 35.1816C139.921 35.9169 139.067 36.5788 137.955 37.1701C136.836 37.7615 135.566 38.1764 134.149 38.4224C132.732 38.6657 131.289 38.7929 129.835 38.7929C128.536 38.7929 127.282 38.6945 126.072 38.5088C124.952 38.324 123.945 38.0483 123.053 37.6946C122.154 37.3372 121.373 36.9232 120.711 36.4377C120.104 35.9939 119.64 35.5474 119.317 35.0786C118.99 34.6181 118.733 34.0686 118.55 33.4271C118.34 32.6956 118.235 31.9232 118.235 31.0895C118.235 30.8101 118.246 30.3868 118.27 29.8242C118.295 29.2524 118.349 28.4391 118.425 27.3706L118.656 24.5652C118.71 23.829 118.777 22.7447 118.848 21.3188L119.162 14.387ZM145.858 38.3352C146.078 36.2761 146.257 34.4241 146.381 32.7726C146.511 31.1248 146.626 29.2143 146.715 27.0374C146.81 24.8632 146.881 22.5665 146.929 20.151C146.969 17.7355 146.994 15.8129 146.994 14.387C148.449 14.4241 149.629 14.4445 150.521 14.4445C151.448 14.4445 152.589 14.4111 153.923 14.3628C155.263 14.309 156.561 14.2811 157.831 14.2811C159.318 14.2811 160.646 14.3424 161.809 14.4612C162.685 14.5392 163.474 14.7119 164.189 14.9709C164.904 15.2252 165.505 15.5372 165.995 15.9039C166.484 16.277 166.894 16.6883 167.215 17.1441C167.544 17.5999 167.793 18.13 167.977 18.7464C168.157 19.3591 168.246 20.0154 168.246 20.7182C168.246 21.5036 168.145 22.2388 167.948 22.9239C167.752 23.6062 167.441 24.2514 167.013 24.8511C166.593 25.4546 166.054 25.9772 165.411 26.4126C164.769 26.8489 163.862 27.3001 162.692 27.7559L163.604 29.983C163.861 30.6022 164.135 31.2316 164.427 31.8805L166.763 37.017C166.87 37.2425 167.055 37.6816 167.323 38.3352C165.406 38.3101 164.111 38.298 163.449 38.298C162.61 38.298 161.239 38.3101 159.333 38.3352C159.145 37.7234 158.811 36.6011 158.316 34.9533C158.12 34.2552 157.953 33.7297 157.809 33.3556C157.531 32.522 157.119 31.3588 156.571 29.8632L154.774 24.8957C155.403 25.0108 156.019 25.0721 156.625 25.0721C157.471 25.0721 158.248 24.9449 158.936 24.6859C159.627 24.4306 160.152 24.0286 160.509 23.4893C160.861 22.9518 161.039 22.3883 161.039 21.7886C161.039 21.2882 160.908 20.8435 160.64 20.4657C160.372 20.0795 159.949 19.801 159.371 19.6153C158.8 19.4306 157.912 19.3313 156.716 19.3313C156.304 19.3313 155.885 19.3396 155.446 19.3563C155.011 19.373 154.506 19.3925 153.922 19.4055C153.772 21.8006 153.634 24.7212 153.521 28.1764C153.402 31.628 153.327 35.009 153.289 38.3333C151.346 38.3083 150.086 38.2962 149.508 38.2962C148.829 38.298 147.615 38.3101 145.858 38.3352ZM176.239 38.3352C176.824 32.6529 177.167 26.395 177.285 19.5633L169.855 19.7527L169.939 17.8088C169.983 16.7653 170.021 15.6272 170.045 14.386C173.35 14.4102 177.198 14.4232 181.595 14.4232L185.904 14.4065H190.092L192.361 14.386L192.253 16.1072C192.206 17.0271 192.177 17.7874 192.159 18.3871C192.141 18.9915 192.134 19.4473 192.134 19.7518C189.646 19.6283 187.591 19.5624 185.977 19.5624H184.757C184.583 21.6242 184.445 23.5348 184.354 25.2856C184.225 27.7958 184.124 30.2318 184.06 32.599C183.987 34.9653 183.95 36.8758 183.95 38.3343C182.046 38.3092 180.812 38.2971 180.252 38.2971C179.753 38.298 178.414 38.3101 176.239 38.3352Z" fill="black"/>
<path d="M204.661 14.4194C204.985 14.4241 205.273 14.4241 205.52 14.4241C207.165 14.4241 208.677 14.4111 210.077 14.3869L212.626 21.7041L217.806 35.7711L218.82 38.3352C216.81 38.3101 215.588 38.298 215.158 38.298C214.181 38.298 212.745 38.3101 210.848 38.3352C210.334 36.4079 209.598 34.1363 208.631 31.5351H204.662V26.4237H207.373C206.022 22.2991 205.281 20.0228 205.159 19.6042C204.988 19.9857 204.82 20.3561 204.662 20.7089V14.4194H204.661ZM220.249 38.3352L220.686 34.7889L221.76 22.4876L222.303 14.386C224.448 14.4101 226.129 14.4231 227.349 14.4231C228.359 14.4231 229.91 14.4101 231.992 14.386C232.143 15.3923 232.273 16.1526 232.377 16.6743C232.483 17.1961 232.74 18.2154 233.157 19.7313C233.565 21.2427 233.9 22.5535 234.149 23.6591C234.399 24.7638 234.775 26.6586 235.275 29.3322C235.782 27.495 236.254 25.9224 236.671 24.5949C237.087 23.272 237.611 21.769 238.241 20.0878C238.87 18.4029 239.266 17.3028 239.434 16.7802C239.607 16.2631 239.832 15.4657 240.123 14.3851C241.868 14.4092 243.576 14.4222 245.251 14.4222C246.396 14.4222 247.972 14.4092 250 14.3851C249.778 18.3286 249.636 21.7152 249.564 24.542C249.416 30.0888 249.337 33.9051 249.337 35.979C249.337 36.4191 249.349 37.2044 249.374 38.3342C247.835 38.3092 246.759 38.2971 246.143 38.2971C245.247 38.2971 244.149 38.3092 242.844 38.3342C242.939 37.2824 243.053 34.7759 243.191 30.8194C243.335 26.8591 243.397 24.3275 243.397 23.2302C243.397 22.7466 243.387 22.08 243.369 21.2297L241.082 28.3704L237.799 38.3333C236.287 38.3082 235.245 38.2962 234.679 38.2962C233.961 38.2962 232.851 38.3082 231.361 38.3333L229.218 28.6861L227.961 23.5422C227.912 23.3453 227.859 23.0984 227.8 22.8069C227.746 22.5117 227.651 21.9974 227.526 21.2622L227.087 26.122L226.515 36.0895L226.459 38.3333C224.852 38.3082 223.832 38.2962 223.385 38.2962C222.786 38.298 221.741 38.3101 220.249 38.3352ZM188.44 38.3352L189.889 35.8082L198.91 18.725L199.869 16.8071C200.148 16.2519 200.537 15.4424 201.035 14.3869C202.543 14.4027 203.752 14.4157 204.66 14.4194V20.7098C204.103 21.9343 203.614 22.9731 203.205 23.8327L201.947 26.4246H204.661V31.536H199.834C198.821 33.5951 197.775 35.8584 196.687 38.3361C194.526 38.311 193.206 38.2989 192.715 38.2989C191.827 38.298 190.405 38.3101 188.44 38.3352Z" fill="black"/>
<path fill-rule="evenodd" clip-rule="evenodd" d="M30.9358 0.5L44.7569 14.3953L30.9358 28.2943L17.1138 14.3953L30.9358 0.5Z" fill="#B2DDF7"/>
<path fill-rule="evenodd" clip-rule="evenodd" d="M48.0475 17.7057L44.7569 14.3953L30.9358 28.2943L34.2237 31.601L48.0475 17.7057Z" fill="#D9EFFD"/>
<path d="M17.1131 14.3958L0 31.602L13.8227 45.4998L30.9358 28.2936L17.1131 14.3958Z" fill="#005F91"/>
<path fill-rule="evenodd" clip-rule="evenodd" d="M61.8677 31.601L48.0475 17.7057L34.2237 31.601L48.0475 45.5L61.8677 31.601Z" fill="#D4053F"/>
<path d="M65.1598 0.502273L48.0473 17.7078L61.868 31.6037L78.9805 14.3981L65.1598 0.502273Z" fill="#E51848"/>
</svg>
