<svg width="50" height="51" viewBox="0 0 50 51" fill="none" xmlns="http://www.w3.org/2000/svg">
<rect y="0.5" width="50" height="50" rx="25" fill="#2300BD"/>
<path d="M35 26.4305V33.3251H30.9641V26.8509C30.9641 25.2534 30.3756 24.1603 28.9462 24.1603C27.8531 24.1603 27.1805 24.917 26.9283 25.5897C26.8442 25.8419 26.7601 26.1783 26.7601 26.5987V33.3251H22.7242C22.7242 33.3251 22.8083 22.3946 22.7242 21.3016H26.7601V22.9832C27.2646 22.1424 28.2735 20.9652 30.3756 20.9652C32.9821 20.9652 35 22.7309 35 26.4305ZM18.5202 15.5C17.1749 15.5 16.25 16.4249 16.25 17.602C16.25 18.7791 17.0908 19.704 18.4361 19.704C19.8655 19.704 20.7063 18.7791 20.7063 17.602C20.7904 16.3408 19.9495 15.5 18.5202 15.5ZM16.5022 33.3251H20.5381V21.3016H16.5022V33.3251Z" fill="white"/>
</svg>
